<svg width="439" height="481" xmlns="http://www.w3.org/2000/svg"><g fill="#D50000" fill-rule="evenodd"><path d="M137.706 180.032c15.753 31.034 15.304 63.463-3.571 77.525-18.874 14.067-46.945.308-62.698-30.727-15.753-31.036-15.304-63.464 3.57-77.528 18.875-14.064 46.946-.308 62.699 30.73M225.434 125.268c12.64 32.668 8.156 64.82-13.324 76.568-21.48 11.753-49.137-5.207-61.774-37.877-12.638-32.672-8.158-64.821 13.323-76.573 21.48-11.75 49.138 5.209 61.775 37.882M333.174 148.004c4.023 36.06-8.398 67.108-32.144 73.245-23.743 6.142-46.251-18.115-50.27-54.177-4.022-36.063 8.396-67.108 32.14-73.249 23.746-6.138 46.253 18.118 50.274 54.181M422.629 221.779c5.477 33.013-4.943 62.139-27.287 68.833-22.341 6.696-44.891-14.64-50.363-47.655-5.476-33.015 4.94-62.136 27.283-68.835 22.344-6.694 44.893 14.64 50.367 47.657M81.054 273.07c21.461 25.7 27.331 55.646 11.593 72.052-15.739 16.413-45.893 8.881-67.353-16.818-21.46-25.699-27.33-55.646-11.593-72.056 15.74-16.407 45.894-8.877 67.353 16.822"/><path d="M164 248.5c12.47-7.55 34-22 58-24s41-1 55.5 5.5 26 14 37 29 20 27.5 31 37.5 24 14.5 37 17 40.751 3.666 50 25.5c6.001 14.166 11.5 25.5-3 56s-38 32-45.5 33.5-48-1-69.5-2-49 12-70.5 23.5-55.5 34-93 30-64-28.5-75-44-16.5-40.5 4-58.5 49-38.5 54-51 8-33 8.5-45 10.869-26.563 21.5-33M5.5 252s12-18.5 28-18c0 0-17.5-16.5-13-79 0 0-33.5 38.5-15 97M61.5 149.5s-20-48 13-97.5c0 0-5.5 43 14 80 0 0-16 0-27 17.5M150.5 83.5s-12-25-9.5-83.5c0 0 36.5 38 43 71.5 0 0-18.5-5.5-33.5 12M275 87.5s3-29-35.5-72.5c0 0 48 8 68.5 71.5 0 0-10.5-7-33 1M369.78 165.84s4.5-26-26.5-76c0 0 47.5 16.5 59 80 0 0-8.5-9.5-32.5-4"/></g></svg>